<?xml version="1.0" encoding="UTF-8"?><svg id="Capa_2" xmlns="http://www.w3.org/2000/svg" viewBox="0 0 27.89 30"><defs><style>.cls-1{fill:#f6007c;}</style></defs><g id="Capa_1-2"><path class="cls-1" d="M27.55,1.96l-9.65,7.83-1.45,1.16c-.36,.31-.45,.57-.34,.88,.17,.38,.42,.49,1.08,.46h3.05c.32,0,.8,.24,1,.72,.18,.45,.07,.98-.29,1.31,0,0-.56,.46-1,.82C16.36,18.05,1.94,29.69,1.94,29.69c-.42,.37-.88,.38-1.32,.18C.27,29.72-.01,29.24,0,28.84V1.01C0,.53,.54,0,1.07,0H26.82c.47,0,.77,.28,.96,.65s.15,1-.23,1.3Z"/></g></svg>