<svg width="33" height="26" viewBox="0 0 33 26" fill="none" xmlns="http://www.w3.org/2000/svg">
<path d="M32.041 12.635L22.8023 3.7429L22.7958 3.7491C20.8718 1.99466 18.454 0.823899 15.8436 0.382684C13.2332 -0.0585306 10.5456 0.249308 8.11563 1.26785C5.6857 2.28638 3.62087 3.97059 2.17841 6.11062C0.735951 8.25065 -0.0203685 10.7519 0.00368414 13.3027C0.0277356 15.8535 0.831097 18.3412 2.31367 20.4556C3.79625 22.5701 5.8925 24.218 8.34123 25.1939C10.79 26.1698 13.4829 26.4307 16.0846 25.9439C18.6863 25.4572 21.0816 24.2444 22.9722 22.4566L22.9742 22.4586L32.0406 13.7324C32.1918 13.5869 32.2767 13.3895 32.2768 13.1838C32.2769 12.978 32.192 12.7806 32.041 12.635Z" fill="#F6007C"/>
</svg>
