<svg width="32" height="26" viewBox="0 0 32 26" fill="none" xmlns="http://www.w3.org/2000/svg">
<path d="M31.5324 12.6351L22.4403 3.74296L22.434 3.74916C20.5405 1.99472 18.1611 0.82396 15.5921 0.382745C13.0231 -0.0584696 10.3781 0.249369 7.98679 1.26791C5.59543 2.28644 3.56337 3.97065 2.14381 6.11068C0.724247 8.25071 -0.020067 10.752 0.00360272 13.3028C0.0272738 15.8536 0.817883 18.3412 2.27693 20.4557C3.73597 22.5702 5.79894 24.218 8.20881 25.194C10.6187 26.1699 13.2689 26.4307 15.8293 25.944C18.3896 25.4572 20.747 24.2444 22.6075 22.4567L22.6095 22.4586L31.532 13.7324C31.6808 13.5869 31.7644 13.3896 31.7644 13.1838C31.7645 12.978 31.681 12.7807 31.5324 12.6351Z" fill="#161616"/>
</svg>
