<svg width="33" height="33" viewBox="0 0 33 33" fill="none" xmlns="http://www.w3.org/2000/svg">
<path d="M16.0302 0C19.2007 0 22.3 0.940692 24.9362 2.70312C27.5723 4.46555 29.627 6.97055 30.8402 9.90136C32.0535 12.8322 32.371 16.0571 31.7525 19.1685C31.1339 22.2798 29.6072 25.1377 27.3653 27.3809C25.1235 29.624 22.2671 31.1516 19.1576 31.7705C16.048 32.3894 12.8249 32.0718 9.89573 30.8578C6.96659 29.6438 4.46301 27.588 2.70158 24.9503C0.940157 22.3127 0 19.2116 0 16.0394C0 11.7855 1.68889 7.70578 4.69515 4.69782C7.7014 1.68986 11.7788 0 16.0302 0V0Z" fill="#F6007C"/>
<path d="M16.3423 12.5155C15.5847 12.5155 14.844 12.7403 14.2141 13.1614C13.5841 13.5826 13.0931 14.1812 12.8032 14.8816C12.5132 15.582 12.4374 16.3526 12.5852 17.0961C12.733 17.8396 13.0978 18.5226 13.6336 19.0586C14.1693 19.5947 14.8519 19.9597 15.595 20.1076C16.3381 20.2555 17.1083 20.1796 17.8083 19.8895C18.5082 19.5994 19.1065 19.1081 19.5274 18.4778C19.9484 17.8475 20.173 17.1064 20.173 16.3484C20.1739 15.8448 20.0754 15.346 19.8831 14.8806C19.6909 14.4152 19.4088 13.9923 19.0529 13.6362C18.697 13.2802 18.2744 12.9979 17.8093 12.8055C17.3441 12.6132 16.8456 12.5146 16.3423 12.5155ZM16.3423 18.8439C15.8498 18.8439 15.3683 18.6978 14.9588 18.4241C14.5492 18.1503 14.2299 17.7613 14.0413 17.306C13.8527 16.8508 13.8032 16.3498 13.899 15.8665C13.9949 15.3831 14.2318 14.939 14.5798 14.5903C14.9279 14.2416 15.3714 14.004 15.8544 13.9075C16.3374 13.8109 16.8381 13.8599 17.2934 14.048C17.7486 14.2362 18.1378 14.5551 18.4119 14.9646C18.686 15.374 18.8326 15.8556 18.8332 16.3484C18.8321 17.009 18.5693 17.6423 18.1024 18.1095C17.6355 18.5766 17.0026 18.8396 16.3423 18.8407V18.8439ZM21.223 12.3615C21.223 12.5384 21.1705 12.7113 21.0723 12.8584C20.9741 13.0055 20.8345 13.1201 20.6711 13.1878C20.5078 13.2555 20.3281 13.2732 20.1547 13.2387C19.9813 13.2042 19.822 13.119 19.697 12.9939C19.5719 12.8688 19.4868 12.7095 19.4523 12.536C19.4178 12.3625 19.4355 12.1826 19.5032 12.0192C19.5708 11.8558 19.6854 11.7161 19.8324 11.6178C19.9794 11.5195 20.1523 11.4671 20.3291 11.4671C20.4463 11.4666 20.5626 11.4894 20.6711 11.534C20.7795 11.5786 20.8782 11.6441 20.9613 11.7269C21.0445 11.8097 21.1104 11.9081 21.1555 12.0164C21.2006 12.1248 21.2239 12.2409 21.224 12.3583L21.223 12.3615ZM23.7603 13.2685C23.7843 12.1063 23.3508 10.9813 22.5533 10.136C21.7071 9.34015 20.5836 8.90675 19.4225 8.92831C18.1892 8.8587 14.4912 8.8587 13.2579 8.92831C12.0979 8.90465 10.9747 9.3358 10.1282 10.1297C9.33128 10.9758 8.89791 12.1009 8.9212 13.2633C8.85163 14.4973 8.85163 18.1973 8.9212 19.4314C8.89717 20.5936 9.33067 21.7186 10.1282 22.5639C10.9747 23.3592 12.098 23.7925 13.259 23.7716C14.4923 23.8412 18.1902 23.8412 19.4235 23.7716C20.5851 23.7956 21.7095 23.3619 22.5543 22.5639C23.3497 21.7173 23.7829 20.5931 23.7613 19.4314C23.8309 18.1963 23.8309 14.5005 23.7613 13.2633L23.7603 13.2685ZM22.1664 20.7572C22.0396 21.0787 21.8482 21.3707 21.6039 21.6151C21.3596 21.8594 21.0678 22.051 20.7465 22.1779C19.2986 22.4754 17.8172 22.5765 16.3423 22.4785C14.8674 22.575 13.3863 22.4739 11.9381 22.1779C11.6163 22.0504 11.3242 21.858 11.0799 21.6127C10.8356 21.3674 10.6444 21.0744 10.5182 20.7519C10.2209 19.3031 10.1198 17.8209 10.2178 16.3452C10.1216 14.8705 10.2227 13.3896 10.5182 11.9417C10.645 11.6202 10.8365 11.3282 11.0807 11.0838C11.325 10.8394 11.6168 10.6478 11.9381 10.521C13.3861 10.2234 14.8674 10.1223 16.3423 10.2204C17.8172 10.1239 19.2984 10.225 20.7465 10.521C21.0678 10.6478 21.3596 10.8394 21.6039 11.0838C21.8482 11.3282 22.0396 11.6202 22.1664 11.9417C22.4655 13.3902 22.5684 14.8724 22.4721 16.3484C22.5685 17.8232 22.4661 19.3044 22.1675 20.7519L22.1664 20.7572Z" fill="white"/>
</svg>
