<svg width="33" height="33" viewBox="0 0 33 33" fill="none" xmlns="http://www.w3.org/2000/svg">
<path d="M16.0302 0C19.2007 0 22.3 0.940692 24.9362 2.70312C27.5723 4.46555 29.627 6.97055 30.8402 9.90136C32.0535 12.8322 32.371 16.0571 31.7525 19.1685C31.1339 22.2798 29.6072 25.1377 27.3653 27.3809C25.1235 29.624 22.2671 31.1516 19.1576 31.7705C16.048 32.3894 12.8249 32.0718 9.89573 30.8578C6.96659 29.6438 4.46301 27.588 2.70158 24.9503C0.940157 22.3127 0 19.2116 0 16.0394C0 11.7855 1.68889 7.70578 4.69515 4.69782C7.7014 1.68986 11.7788 0 16.0302 0V0Z" fill="#F6007C"/>
<path d="M11.9666 22.7274H9.09618V13.4774H11.9666V22.7274ZM10.5298 12.2159C10.1993 12.2176 9.87575 12.1211 9.60005 11.9388C9.32434 11.7564 9.10888 11.4964 8.98091 11.1915C8.85295 10.8866 8.81822 10.5506 8.88114 10.2259C8.94406 9.9013 9.10179 9.60263 9.33438 9.36769C9.56696 9.13276 9.86396 8.97212 10.1878 8.9061C10.5116 8.84007 10.8478 8.87163 11.1537 8.99678C11.4596 9.12192 11.7216 9.33504 11.9064 9.60916C12.0913 9.88329 12.1907 10.2061 12.1922 10.5368C12.1928 10.9796 12.0183 11.4046 11.7069 11.7192C11.3954 12.0337 10.9723 12.2123 10.5298 12.2159ZM22.7103 22.7274H19.8463V18.2248C19.8463 17.1521 19.8241 15.7757 18.3536 15.7757C16.8609 15.7757 16.6322 16.9411 16.6322 18.1478V22.7274H13.7649V13.4774H16.5184V14.7431H16.5626C16.8371 14.2714 17.2344 13.883 17.712 13.6193C18.1896 13.3555 18.7297 13.2263 19.2749 13.2453C22.1801 13.2453 22.7146 15.1597 22.7146 17.6457V22.7264L22.7103 22.7274Z" fill="white"/>
</svg>
