<svg width="296" height="79" viewBox="0 0 296 79" fill="none" xmlns="http://www.w3.org/2000/svg">
<path d="M0.0139577 2.48959C-0.0230624 1.84892 0.193246 1.21928 0.616599 0.735412C0.989284 0.32618 1.50841 0.0789377 2.0623 0.0468594H52.375C52.7095 0.0232957 53.0452 0.0726999 53.3586 0.191624C53.672 0.310549 53.9555 0.496125 54.1895 0.735412C54.6129 1.25909 54.8275 1.91986 54.7921 2.59123V15.7328C54.7825 16.3622 54.5597 16.9699 54.1598 17.4575C53.9422 17.7318 53.661 17.9496 53.3405 18.0924C53.0199 18.2351 52.6694 18.2985 52.319 18.2772H20.3491V34.75H43.9577C44.5672 34.7316 45.1635 34.9291 45.6405 35.3074C45.8824 35.5332 46.0695 35.8108 46.1876 36.1193C46.3058 36.4278 46.3518 36.759 46.3221 37.0878V49.7901C46.3143 50.4148 46.1028 51.0201 45.7195 51.5147C45.5351 51.7771 45.2881 51.9896 45.0006 52.1333C44.7132 52.2769 44.3944 52.3472 44.0729 52.3377H20.3623V76.6765C20.3623 78.2066 19.5566 78.9717 17.9451 78.9717H1.90751C1.63264 78.9578 1.36356 78.8879 1.11696 78.7663C0.870354 78.6446 0.651491 78.4738 0.473941 78.2645C0.29639 78.0551 0.163938 77.8116 0.0848094 77.5492C0.00568116 77.2867 -0.0184255 77.0109 0.0139577 76.7388V2.48959Z" fill="#F6007C"/>
<path d="M64.8937 2.33118C64.8852 1.72415 65.1117 1.13713 65.526 0.691766C65.7479 0.458658 66.018 0.27635 66.3177 0.15746C66.6174 0.0385698 66.9394 -0.0140654 67.2615 0.00320791H82.8249C83.4287 0.00623579 84.0099 0.232995 84.455 0.639302C84.6996 0.851588 84.8964 1.1129 85.0326 1.40615C85.1688 1.69939 85.2413 2.01796 85.2453 2.34102V60.1501H114.166C114.478 60.1446 114.789 60.2035 115.078 60.3232C115.366 60.4428 115.627 60.6206 115.844 60.8453C116.06 61.0701 116.228 61.337 116.336 61.6292C116.444 61.9215 116.49 62.2328 116.471 62.5437V76.5148C116.468 77.1151 116.254 77.6953 115.865 78.1542C115.657 78.4041 115.395 78.605 115.1 78.7428C114.804 78.8805 114.482 78.9516 114.156 78.951H67.2055C66.8893 78.992 66.5677 78.9594 66.2663 78.8557C65.9648 78.752 65.6917 78.5801 65.4682 78.3536C65.2448 78.127 65.0773 77.8519 64.9787 77.5499C64.8801 77.2479 64.8533 76.9272 64.9003 76.6132L64.8937 2.33118Z" fill="#F6007C"/>
<path d="M127.883 2.38381C127.872 1.78626 128.076 1.20451 128.46 0.744397C128.677 0.506099 128.947 0.320271 129.248 0.200979C129.548 0.0816865 129.872 0.032059 130.195 0.0558448H145.653C146.267 0.0875415 146.855 0.309997 147.336 0.691939C147.616 0.878092 147.845 1.13159 148.001 1.42901C148.157 1.72643 148.235 2.05819 148.228 2.39365V76.6232C148.228 78.1817 147.369 78.961 145.65 78.961H130.192C129.875 79.002 129.554 78.9694 129.252 78.8657C128.951 78.762 128.678 78.5902 128.454 78.3636C128.231 78.137 128.063 77.8619 127.965 77.5599C127.866 77.2579 127.84 76.9372 127.887 76.6232L127.883 2.38381Z" fill="#F6007C"/>
<path d="M163.11 2.49192C163.076 1.8481 163.281 1.2143 163.686 0.711509C163.909 0.48159 164.18 0.303573 164.48 0.190204C164.78 0.0768351 165.102 0.0309217 165.422 0.0557459H199.012C201.328 0.0412722 203.633 0.381883 205.845 1.06562C207.93 1.71396 209.913 2.65341 211.733 3.85591C213.531 5.05389 215.158 6.48762 216.571 8.1184C219.424 11.3876 221.455 15.285 222.499 19.4894C223.803 24.7134 223.483 30.2089 221.58 35.2475C220.477 38.2338 218.828 40.9909 216.716 43.379C214.59 45.7714 212.017 47.7301 209.142 49.1464C206.1 50.6395 202.752 51.4127 199.361 51.4056H183.458V76.7018C183.458 78.2319 182.653 78.9969 181.041 78.9969H165.425C164.814 79.0279 164.213 78.8289 163.742 78.4396C163.518 78.2143 163.345 77.9431 163.236 77.6447C163.126 77.3464 163.084 77.028 163.11 76.7116V2.49192ZM202.704 25.7716C202.7 24.6862 202.514 23.609 202.154 22.5846C201.799 21.547 201.255 20.5833 200.55 19.7419C199.84 18.9022 198.973 18.2074 197.998 17.6959C196.952 17.1525 195.785 16.8786 194.606 16.8991H183.458V34.6474H194.606C195.79 34.6646 196.962 34.4004 198.024 33.8769C199.001 33.3924 199.869 32.714 200.573 31.8834C201.267 31.0482 201.801 30.0936 202.15 29.0669C202.515 28.0119 202.701 26.9038 202.7 25.788" fill="#F6007C"/>
<path d="M248.13 2.1179C248.181 1.86394 248.294 1.62638 248.459 1.42606C248.663 1.16644 248.902 0.93491 249.167 0.737508C249.441 0.529492 249.743 0.359614 250.063 0.232563C250.347 0.114501 250.651 0.0510881 250.959 0.0456724H264.421C264.982 0.0323394 265.527 0.231572 265.946 0.603074C266.293 0.898754 266.609 1.22828 266.891 1.58672L268.208 4.61636L295.814 76.5704C295.959 76.842 296.022 77.1498 295.994 77.4562C295.966 77.7626 295.848 78.0541 295.656 78.295C295.39 78.5404 295.075 78.7259 294.73 78.8391C294.386 78.9522 294.021 78.9903 293.661 78.9508H278.571C277.918 78.9908 277.267 78.8331 276.704 78.4983C276.208 78.1161 275.849 77.5849 275.68 76.9835C274.978 75.1758 274.294 73.3779 273.628 71.5898C272.963 69.8018 272.297 68.0039 271.63 66.1961H243.704C243.045 68.0039 242.37 69.8018 241.678 71.5898C240.987 73.3779 240.312 75.1758 239.653 76.9835C239.502 77.5686 239.153 78.0839 238.665 78.4423C238.176 78.8008 237.579 78.9804 236.973 78.9508H221.462C220.867 78.9718 220.284 78.7837 219.815 78.4196C219.597 78.2224 219.453 77.9557 219.41 77.6651C219.367 77.3745 219.426 77.078 219.578 76.8261L248.13 2.1179ZM257.7 24.8632C257.041 26.6709 256.366 28.6196 255.674 30.7093C254.983 32.799 254.308 34.9073 253.649 37.0342C252.99 39.1589 252.315 41.2584 251.624 43.3328C250.932 45.4072 250.257 47.3472 249.598 49.1528H265.735L257.7 24.8632Z" fill="#F6007C"/>
</svg>
