<svg width="50" height="50" viewBox="0 0 50 50" fill="none" xmlns="http://www.w3.org/2000/svg">
<path d="M48.5043 0H24.3219V0.0200767C10.4288 0.381457 -0.64347 12.0761 0.029099 26.2101C0.6314 38.9789 10.9809 49.3485 23.7497 49.9709C38.0443 50.6535 49.8595 39.3302 49.99 25.2163H50V1.48568C49.99 0.662531 49.3274 0 48.5043 0ZM43.4148 12.4977L33.5471 20.408L32.1217 21.5824C31.3186 22.4658 31.9611 23.0982 32.8947 23.0882L35.9564 23.0982C37.3517 23.0882 37.6428 24.1422 36.8096 24.8951C36.8096 24.8951 36.0065 25.5576 35.5649 25.919C31.9611 28.8603 17.2047 41.0167 17.2047 41.0167C16.3213 41.6391 15.5685 41.1371 15.5685 40.3843L15.6086 11.8453C15.6086 11.3534 16.1105 10.8816 16.6024 10.8816H42.6519C43.6357 10.8715 43.9469 12.0059 43.4148 12.4977Z" fill="#F6007C"/>
</svg>
