<svg width="32" height="32" viewBox="0 0 32 32" fill="none" xmlns="http://www.w3.org/2000/svg">
<path d="M16 0C19.1645 0 22.2579 0.938384 24.8891 2.69649C27.5203 4.45459 29.5711 6.95345 30.7821 9.87706C31.9931 12.8007 32.3099 16.0177 31.6926 19.1214C31.0752 22.2251 29.5513 25.0761 27.3137 27.3137C25.0761 29.5513 22.2251 31.0752 19.1214 31.6926C16.0177 32.3099 12.8007 31.9931 9.87706 30.7821C6.95345 29.5711 4.45459 27.5203 2.69649 24.8891C0.938384 22.2579 0 19.1645 0 16C0 11.7565 1.68571 7.68687 4.68629 4.68629C7.68687 1.68571 11.7565 0 16 0V0Z" fill="#F6007C"/>
<path d="M19.8046 17.6477C19.5942 17.5424 18.582 17.0479 18.3926 16.9795C18.2032 16.9112 18.0654 16.8743 17.9265 17.0848C17.7876 17.2952 17.3931 17.7518 17.2731 17.8886C17.1532 18.0254 17.0311 18.0338 16.826 17.9402C16.2167 17.6968 15.6548 17.3485 15.1657 16.9112C14.714 16.4935 14.3262 16.0117 14.0146 15.4813C13.8947 15.2709 14.002 15.1593 14.1051 15.0604C14.2082 14.9615 14.3155 14.8216 14.4208 14.6985C14.5038 14.5926 14.5744 14.4775 14.6312 14.3555C14.6588 14.2984 14.6718 14.2353 14.6689 14.1719C14.6659 14.1085 14.6472 14.0468 14.6144 13.9925C14.5628 13.8873 14.1493 12.872 13.9768 12.4658C13.8042 12.0597 13.6401 12.1134 13.5117 12.1134C13.3833 12.1134 13.255 12.1028 13.1161 12.1028C13.0123 12.1054 12.9101 12.1287 12.8154 12.1714C12.7207 12.214 12.6355 12.2751 12.5648 12.3512C12.3324 12.5712 12.1482 12.837 12.0238 13.1318C11.8994 13.4267 11.8375 13.7441 11.8419 14.064C11.9121 14.8394 12.2044 15.578 12.6837 16.1915C13.5724 17.5133 14.7881 18.5826 16.2126 19.2953C16.7071 19.5057 17.0911 19.6278 17.392 19.7309C17.8136 19.8587 18.259 19.8875 18.6935 19.8151C18.9816 19.7558 19.2543 19.6376 19.4944 19.4677C19.7346 19.2979 19.9369 19.0801 20.0887 18.8282C20.2266 18.519 20.2698 18.176 20.2128 17.8423C20.1613 17.7487 20.0255 17.6971 19.8183 17.6035M16.0495 22.759H16.0305C14.8004 22.7536 13.594 22.4206 12.5353 21.7942L12.286 21.6458L9.6882 22.3202L10.3837 19.7951L10.2206 19.5363C9.33229 18.105 9.00141 16.397 9.29096 14.7375C9.58051 13.078 10.4703 11.583 11.7908 10.5371C13.1113 9.49119 14.7704 8.96748 16.4521 9.06568C18.1338 9.16389 19.7206 9.87714 20.9104 11.0696C21.5506 11.7022 22.0583 12.456 22.4039 13.287C22.7495 14.118 22.926 15.0095 22.9232 15.9095C22.9145 17.7269 22.1863 19.4668 20.8979 20.7485C19.6095 22.0302 17.8658 22.7493 16.0484 22.7485M21.8994 10.0817C20.3294 8.55094 18.2233 7.69458 16.0305 7.6954C14.5829 7.68876 13.1591 8.0642 11.9029 8.78383C10.6467 9.50345 9.60267 10.5418 8.87614 11.794C8.14961 13.0462 7.76633 14.4679 7.765 15.9156C7.76367 17.3633 8.14435 18.7857 8.86858 20.0392L7.69543 24.3035L12.0797 23.162C13.294 23.8174 14.6518 24.1615 16.0316 24.1636C18.2188 24.1653 20.3174 23.2997 21.8674 21.7566C23.4174 20.2135 24.2923 18.1188 24.3004 15.9316C24.3031 14.8494 24.0905 13.7776 23.6751 12.7783C23.2596 11.7791 22.6496 10.8724 21.8805 10.1111" fill="white"/>
</svg>
